<?xml version="1.0" standalone="no"?>
<!DOCTYPE svg PUBLIC "-//W3C//DTD SVG 20010904//EN"
 "http://www.w3.org/TR/2001/REC-SVG-20010904/DTD/svg10.dtd">
<svg version="1.0" xmlns="http://www.w3.org/2000/svg"
 width="70.000000pt" height="70.000000pt" viewBox="0 0 70.000000 70.000000"
 preserveAspectRatio="xMidYMid meet">
<metadata>
Created by potrace 1.14, written by Peter Selinger 2001-2017
</metadata>
<g transform="translate(0.000000,70.000000) scale(0.100000,-0.100000)"
fill="#000000" stroke="none">
<path d="M367 523 c-3 -7 -2 -202 1 -309 2 -40 3 -40 42 -42 l40 -3 1 51 c2
90 3 95 13 102 8 5 8 8 1 8 -6 0 -11 9 -12 20 -1 11 3 20 9 20 6 0 6 6 -2 15
-10 12 -10 15 1 15 9 0 10 3 3 8 -6 4 -10 27 -9 52 0 25 -1 51 -3 58 -4 13
-78 17 -85 5z"/>
<path d="M114 481 c-70 -43 -95 -140 -54 -207 23 -36 91 -74 134 -74 56 0 147
65 129 93 -3 5 -1 7 4 4 13 -8 23 14 23 49 0 112 -141 193 -236 135z m103
-112 c19 -19 3 -49 -27 -49 -29 0 -43 19 -34 45 7 17 45 20 61 4z"/>
<path d="M487 421 c-2 -11 0 -25 7 -32 8 -9 7 -10 -4 -5 -8 4 -5 0 6 -9 23
-17 22 -55 0 -55 -8 0 -11 -11 -8 -28 3 -25 9 -29 38 -30 22 -1 37 4 43 16 9
16 11 16 28 -1 11 -9 32 -17 46 -17 24 0 27 4 27 33 0 18 -5 38 -12 45 -9 9
-9 15 0 24 7 7 12 27 12 45 0 29 -3 33 -28 33 -15 0 -34 -6 -40 -12 -10 -10
-17 -10 -32 0 -31 19 -77 15 -83 -7z"/>
</g>
</svg>
